<svg width="250" height="87" viewBox="0 0 250 87" fill="none" xmlns="http://www.w3.org/2000/svg">
<g clip-path="url(#clip0_16_27)">
<rect width="47" height="47" transform="translate(10 43.454) rotate(-45.3805)" fill="#4E4E4E"/>
<rect x="22.7333" y="22.7333" width="41" height="41" rx="20.5" fill="white"/>
<path d="M42.7333 24.7333L59.1878 53.2333H26.2788L42.7333 24.7333Z" fill="#4E4E4E"/>
</g>
<path d="M106.947 52.4733C104.643 52.4733 102.835 51.8253 101.523 50.5293C100.227 49.2333 99.5786 47.3613 99.5786 44.9133V35.4333H102.699V44.7933C102.699 46.5213 103.067 47.7773 103.803 48.5613C104.555 49.3453 105.611 49.7373 106.971 49.7373C108.331 49.7373 109.379 49.3453 110.115 48.5613C110.851 47.7773 111.219 46.5213 111.219 44.7933V35.4333H114.291V44.9133C114.291 47.3613 113.635 49.2333 112.323 50.5293C111.027 51.8253 109.235 52.4733 106.947 52.4733ZM125.644 39.2733C126.668 39.2733 127.58 39.4733 128.38 39.8733C129.196 40.2733 129.836 40.8893 130.3 41.7213C130.764 42.5373 130.996 43.5933 130.996 44.8893V52.2333H127.996V45.2733C127.996 44.1373 127.724 43.2893 127.18 42.7293C126.652 42.1693 125.908 41.8893 124.948 41.8893C124.244 41.8893 123.62 42.0333 123.076 42.3213C122.532 42.6093 122.108 43.0413 121.804 43.6173C121.516 44.1773 121.372 44.8893 121.372 45.7533V52.2333H118.372V39.4173H121.228V42.8733L120.724 41.8173C121.172 41.0013 121.82 40.3773 122.668 39.9453C123.532 39.4973 124.524 39.2733 125.644 39.2733ZM134.802 52.2333V39.4173H137.802V52.2333H134.802ZM136.314 37.3053C135.754 37.3053 135.29 37.1293 134.922 36.7773C134.57 36.4253 134.394 36.0013 134.394 35.5053C134.394 34.9933 134.57 34.5693 134.922 34.2333C135.29 33.8813 135.754 33.7053 136.314 33.7053C136.874 33.7053 137.33 33.8733 137.682 34.2093C138.05 34.5293 138.234 34.9373 138.234 35.4333C138.234 35.9613 138.058 36.4093 137.706 36.7773C137.354 37.1293 136.89 37.3053 136.314 37.3053ZM146.563 52.4013C145.155 52.4013 144.067 52.0413 143.299 51.3213C142.531 50.5853 142.147 49.5053 142.147 48.0813V36.5853H145.147V48.0093C145.147 48.6173 145.299 49.0893 145.603 49.4253C145.923 49.7613 146.363 49.9293 146.923 49.9293C147.595 49.9293 148.155 49.7533 148.603 49.4013L149.443 51.5373C149.091 51.8253 148.659 52.0413 148.147 52.1853C147.635 52.3293 147.107 52.4013 146.563 52.4013ZM140.035 41.9133V39.5133H148.579V41.9133H140.035ZM158.832 52.2333V35.4333H165.744C167.232 35.4333 168.504 35.6733 169.56 36.1533C170.632 36.6333 171.456 37.3213 172.032 38.2173C172.608 39.1133 172.896 40.1773 172.896 41.4093C172.896 42.6413 172.608 43.7053 172.032 44.6013C171.456 45.4813 170.632 46.1613 169.56 46.6413C168.504 47.1053 167.232 47.3373 165.744 47.3373H160.56L161.952 45.9213V52.2333H158.832ZM169.824 52.2333L165.576 46.1373H168.912L173.184 52.2333H169.824ZM161.952 46.2573L160.56 44.7693H165.6C166.976 44.7693 168.008 44.4733 168.696 43.8813C169.4 43.2893 169.752 42.4653 169.752 41.4093C169.752 40.3373 169.4 39.5133 168.696 38.9373C168.008 38.3613 166.976 38.0733 165.6 38.0733H160.56L161.952 36.5373V46.2573ZM183.877 52.2333V49.6413L183.709 49.0893V44.5533C183.709 43.6733 183.445 42.9933 182.917 42.5133C182.389 42.0173 181.589 41.7693 180.517 41.7693C179.797 41.7693 179.085 41.8813 178.381 42.1053C177.693 42.3293 177.109 42.6413 176.629 43.0413L175.453 40.8573C176.141 40.3293 176.957 39.9373 177.901 39.6813C178.861 39.4093 179.853 39.2733 180.877 39.2733C182.733 39.2733 184.165 39.7213 185.173 40.6173C186.197 41.4973 186.709 42.8653 186.709 44.7213V52.2333H183.877ZM179.845 52.4013C178.885 52.4013 178.045 52.2413 177.325 51.9213C176.605 51.5853 176.045 51.1293 175.645 50.5533C175.261 49.9613 175.069 49.2973 175.069 48.5613C175.069 47.8413 175.237 47.1933 175.573 46.6173C175.925 46.0413 176.493 45.5853 177.277 45.2493C178.061 44.9133 179.101 44.7453 180.397 44.7453H184.117V46.7373H180.613C179.589 46.7373 178.901 46.9053 178.549 47.2413C178.197 47.5613 178.021 47.9613 178.021 48.4413C178.021 48.9853 178.237 49.4173 178.669 49.7373C179.101 50.0573 179.701 50.2173 180.469 50.2173C181.205 50.2173 181.861 50.0493 182.437 49.7133C183.029 49.3773 183.453 48.8813 183.709 48.2253L184.213 50.0253C183.925 50.7773 183.405 51.3613 182.653 51.7773C181.917 52.1933 180.981 52.4013 179.845 52.4013ZM195.384 52.4013C193.976 52.4013 192.888 52.0413 192.12 51.3213C191.352 50.5853 190.968 49.5053 190.968 48.0813V36.5853H193.968V48.0093C193.968 48.6173 194.12 49.0893 194.424 49.4253C194.744 49.7613 195.184 49.9293 195.744 49.9293C196.416 49.9293 196.976 49.7533 197.424 49.4013L198.264 51.5373C197.912 51.8253 197.48 52.0413 196.968 52.1853C196.456 52.3293 195.928 52.4013 195.384 52.4013ZM188.856 41.9133V39.5133H197.4V41.9133H188.856ZM200.731 52.2333V39.4173H203.731V52.2333H200.731ZM202.243 37.3053C201.683 37.3053 201.219 37.1293 200.851 36.7773C200.499 36.4253 200.323 36.0013 200.323 35.5053C200.323 34.9933 200.499 34.5693 200.851 34.2333C201.219 33.8813 201.683 33.7053 202.243 33.7053C202.803 33.7053 203.259 33.8733 203.611 34.2093C203.979 34.5293 204.163 34.9373 204.163 35.4333C204.163 35.9613 203.987 36.4093 203.635 36.7773C203.283 37.1293 202.819 37.3053 202.243 37.3053ZM214.941 39.2733C215.965 39.2733 216.877 39.4733 217.677 39.8733C218.493 40.2733 219.133 40.8893 219.597 41.7213C220.061 42.5373 220.293 43.5933 220.293 44.8893V52.2333H217.293V45.2733C217.293 44.1373 217.021 43.2893 216.477 42.7293C215.949 42.1693 215.205 41.8893 214.245 41.8893C213.541 41.8893 212.917 42.0333 212.373 42.3213C211.829 42.6093 211.405 43.0413 211.101 43.6173C210.813 44.1773 210.669 44.8893 210.669 45.7533V52.2333H207.669V39.4173H210.525V42.8733L210.021 41.8173C210.469 41.0013 211.117 40.3773 211.965 39.9453C212.829 39.4973 213.821 39.2733 214.941 39.2733ZM229.93 57.0573C228.746 57.0573 227.586 56.8973 226.45 56.5773C225.33 56.2733 224.41 55.8253 223.69 55.2333L225.034 52.9773C225.594 53.4413 226.298 53.8093 227.146 54.0813C228.01 54.3693 228.882 54.5133 229.762 54.5133C231.17 54.5133 232.202 54.1853 232.858 53.5293C233.514 52.8893 233.842 51.9213 233.842 50.6253V48.3453L234.082 45.4413L233.986 42.5373V39.4173H236.842V50.2893C236.842 52.6093 236.25 54.3133 235.066 55.4013C233.882 56.5053 232.17 57.0573 229.93 57.0573ZM229.546 51.6573C228.33 51.6573 227.226 51.4013 226.234 50.8893C225.258 50.3613 224.482 49.6333 223.906 48.7053C223.346 47.7773 223.066 46.6893 223.066 45.4413C223.066 44.2093 223.346 43.1293 223.906 42.2013C224.482 41.2733 225.258 40.5533 226.234 40.0413C227.226 39.5293 228.33 39.2733 229.546 39.2733C230.634 39.2733 231.61 39.4893 232.474 39.9213C233.338 40.3533 234.026 41.0253 234.538 41.9373C235.066 42.8493 235.33 44.0173 235.33 45.4413C235.33 46.8653 235.066 48.0413 234.538 48.9693C234.026 49.8813 233.338 50.5613 232.474 51.0093C231.61 51.4413 230.634 51.6573 229.546 51.6573ZM230.002 49.1133C230.754 49.1133 231.426 48.9613 232.018 48.6573C232.61 48.3373 233.066 47.9053 233.386 47.3613C233.722 46.8013 233.89 46.1613 233.89 45.4413C233.89 44.7213 233.722 44.0893 233.386 43.5453C233.066 42.9853 232.61 42.5613 232.018 42.2733C231.426 41.9693 230.754 41.8173 230.002 41.8173C229.25 41.8173 228.57 41.9693 227.962 42.2733C227.37 42.5613 226.906 42.9853 226.57 43.5453C226.25 44.0893 226.09 44.7213 226.09 45.4413C226.09 46.1613 226.25 46.8013 226.57 47.3613C226.906 47.9053 227.37 48.3373 227.962 48.6573C228.57 48.9613 229.25 49.1133 230.002 49.1133Z" fill="#4E4E4E"/>
<defs>
<clipPath id="clip0_16_27">
<rect width="47" height="47" fill="white" transform="translate(10 43.454) rotate(-45.3805)"/>
</clipPath>
</defs>
</svg>
