<svg width="220" height="71" viewBox="0 0 220 71" fill="none" xmlns="http://www.w3.org/2000/svg">
<g filter="url(#filter0_d_16_22)">
<rect x="3.93056" y="31.2594" width="45.1878" height="43.3803" rx="5" transform="rotate(-43.7701 3.93056 31.2594)" fill="black" fill-opacity="0.01" shape-rendering="crispEdges"/>
</g>
<rect x="17.9306" y="13" width="35" height="35" rx="17.5" fill="#BBBBBB" fill-opacity="0.1"/>
<path d="M33.1985 19C33.9683 17.6667 35.8928 17.6667 36.6626 19L46.1889 35.5C46.9587 36.8333 45.9964 38.5 44.4568 38.5H25.4043C23.8647 38.5 22.9024 36.8333 23.6722 35.5L33.1985 19Z" fill="#2A2A2A" fill-opacity="0.73"/>
<path d="M87.4106 39.24C85.1066 39.24 83.2986 38.592 81.9866 37.296C80.6906 36 80.0426 34.128 80.0426 31.68V22.2H83.1626V31.56C83.1626 33.288 83.5306 34.544 84.2666 35.328C85.0186 36.112 86.0746 36.504 87.4346 36.504C88.7946 36.504 89.8426 36.112 90.5786 35.328C91.3146 34.544 91.6826 33.288 91.6826 31.56V22.2H94.7546V31.68C94.7546 34.128 94.0986 36 92.7866 37.296C91.4906 38.592 89.6986 39.24 87.4106 39.24ZM106.108 26.04C107.132 26.04 108.044 26.24 108.844 26.64C109.66 27.04 110.3 27.656 110.764 28.488C111.228 29.304 111.46 30.36 111.46 31.656V39H108.46V32.04C108.46 30.904 108.188 30.056 107.644 29.496C107.116 28.936 106.372 28.656 105.412 28.656C104.708 28.656 104.084 28.8 103.54 29.088C102.996 29.376 102.572 29.808 102.268 30.384C101.98 30.944 101.836 31.656 101.836 32.52V39H98.8361V26.184H101.692V29.64L101.188 28.584C101.636 27.768 102.284 27.144 103.132 26.712C103.996 26.264 104.988 26.04 106.108 26.04ZM115.266 39V26.184H118.266V39H115.266ZM116.778 24.072C116.218 24.072 115.754 23.896 115.386 23.544C115.034 23.192 114.858 22.768 114.858 22.272C114.858 21.76 115.034 21.336 115.386 21C115.754 20.648 116.218 20.472 116.778 20.472C117.338 20.472 117.794 20.64 118.146 20.976C118.514 21.296 118.698 21.704 118.698 22.2C118.698 22.728 118.522 23.176 118.17 23.544C117.818 23.896 117.354 24.072 116.778 24.072ZM127.027 39.168C125.619 39.168 124.531 38.808 123.763 38.088C122.995 37.352 122.611 36.272 122.611 34.848V23.352H125.611V34.776C125.611 35.384 125.763 35.856 126.067 36.192C126.387 36.528 126.827 36.696 127.387 36.696C128.059 36.696 128.619 36.52 129.067 36.168L129.907 38.304C129.555 38.592 129.123 38.808 128.611 38.952C128.099 39.096 127.571 39.168 127.027 39.168ZM120.499 28.68V26.28H129.043V28.68H120.499ZM139.296 39V22.2H146.208C147.696 22.2 148.968 22.44 150.024 22.92C151.096 23.4 151.92 24.088 152.496 24.984C153.072 25.88 153.36 26.944 153.36 28.176C153.36 29.408 153.072 30.472 152.496 31.368C151.92 32.248 151.096 32.928 150.024 33.408C148.968 33.872 147.696 34.104 146.208 34.104H141.024L142.416 32.688V39H139.296ZM150.288 39L146.04 32.904H149.376L153.648 39H150.288ZM142.416 33.024L141.024 31.536H146.064C147.44 31.536 148.472 31.24 149.16 30.648C149.864 30.056 150.216 29.232 150.216 28.176C150.216 27.104 149.864 26.28 149.16 25.704C148.472 25.128 147.44 24.84 146.064 24.84H141.024L142.416 23.304V33.024ZM164.341 39V36.408L164.173 35.856V31.32C164.173 30.44 163.909 29.76 163.381 29.28C162.853 28.784 162.053 28.536 160.981 28.536C160.261 28.536 159.549 28.648 158.845 28.872C158.157 29.096 157.573 29.408 157.093 29.808L155.917 27.624C156.605 27.096 157.421 26.704 158.365 26.448C159.325 26.176 160.317 26.04 161.341 26.04C163.197 26.04 164.629 26.488 165.637 27.384C166.661 28.264 167.173 29.632 167.173 31.488V39H164.341ZM160.309 39.168C159.349 39.168 158.509 39.008 157.789 38.688C157.069 38.352 156.509 37.896 156.109 37.32C155.725 36.728 155.533 36.064 155.533 35.328C155.533 34.608 155.701 33.96 156.037 33.384C156.389 32.808 156.957 32.352 157.741 32.016C158.525 31.68 159.565 31.512 160.861 31.512H164.581V33.504H161.077C160.053 33.504 159.365 33.672 159.013 34.008C158.661 34.328 158.485 34.728 158.485 35.208C158.485 35.752 158.701 36.184 159.133 36.504C159.565 36.824 160.165 36.984 160.933 36.984C161.669 36.984 162.325 36.816 162.901 36.48C163.493 36.144 163.917 35.648 164.173 34.992L164.677 36.792C164.389 37.544 163.869 38.128 163.117 38.544C162.381 38.96 161.445 39.168 160.309 39.168ZM175.848 39.168C174.44 39.168 173.352 38.808 172.584 38.088C171.816 37.352 171.432 36.272 171.432 34.848V23.352H174.432V34.776C174.432 35.384 174.584 35.856 174.888 36.192C175.208 36.528 175.648 36.696 176.208 36.696C176.88 36.696 177.44 36.52 177.888 36.168L178.728 38.304C178.376 38.592 177.944 38.808 177.432 38.952C176.92 39.096 176.392 39.168 175.848 39.168ZM169.32 28.68V26.28H177.864V28.68H169.32ZM181.195 39V26.184H184.195V39H181.195ZM182.707 24.072C182.147 24.072 181.683 23.896 181.315 23.544C180.963 23.192 180.787 22.768 180.787 22.272C180.787 21.76 180.963 21.336 181.315 21C181.683 20.648 182.147 20.472 182.707 20.472C183.267 20.472 183.723 20.64 184.075 20.976C184.443 21.296 184.627 21.704 184.627 22.2C184.627 22.728 184.451 23.176 184.099 23.544C183.747 23.896 183.283 24.072 182.707 24.072ZM195.405 26.04C196.429 26.04 197.341 26.24 198.141 26.64C198.957 27.04 199.597 27.656 200.061 28.488C200.525 29.304 200.757 30.36 200.757 31.656V39H197.757V32.04C197.757 30.904 197.485 30.056 196.941 29.496C196.413 28.936 195.669 28.656 194.709 28.656C194.005 28.656 193.381 28.8 192.837 29.088C192.293 29.376 191.869 29.808 191.565 30.384C191.277 30.944 191.133 31.656 191.133 32.52V39H188.133V26.184H190.989V29.64L190.485 28.584C190.933 27.768 191.581 27.144 192.429 26.712C193.293 26.264 194.285 26.04 195.405 26.04ZM210.394 43.824C209.21 43.824 208.05 43.664 206.914 43.344C205.794 43.04 204.874 42.592 204.154 42L205.498 39.744C206.058 40.208 206.762 40.576 207.61 40.848C208.474 41.136 209.346 41.28 210.226 41.28C211.634 41.28 212.666 40.952 213.322 40.296C213.978 39.656 214.306 38.688 214.306 37.392V35.112L214.546 32.208L214.45 29.304V26.184H217.306V37.056C217.306 39.376 216.714 41.08 215.53 42.168C214.346 43.272 212.634 43.824 210.394 43.824ZM210.01 38.424C208.794 38.424 207.69 38.168 206.698 37.656C205.722 37.128 204.946 36.4 204.37 35.472C203.81 34.544 203.53 33.456 203.53 32.208C203.53 30.976 203.81 29.896 204.37 28.968C204.946 28.04 205.722 27.32 206.698 26.808C207.69 26.296 208.794 26.04 210.01 26.04C211.098 26.04 212.074 26.256 212.938 26.688C213.802 27.12 214.49 27.792 215.002 28.704C215.53 29.616 215.794 30.784 215.794 32.208C215.794 33.632 215.53 34.808 215.002 35.736C214.49 36.648 213.802 37.328 212.938 37.776C212.074 38.208 211.098 38.424 210.01 38.424ZM210.466 35.88C211.218 35.88 211.89 35.728 212.482 35.424C213.074 35.104 213.53 34.672 213.85 34.128C214.186 33.568 214.354 32.928 214.354 32.208C214.354 31.488 214.186 30.856 213.85 30.312C213.53 29.752 213.074 29.328 212.482 29.04C211.89 28.736 211.218 28.584 210.466 28.584C209.714 28.584 209.034 28.736 208.426 29.04C207.834 29.328 207.37 29.752 207.034 30.312C206.714 30.856 206.554 31.488 206.554 32.208C206.554 32.928 206.714 33.568 207.034 34.128C207.37 34.672 207.834 35.104 208.426 35.424C209.034 35.728 209.714 35.88 210.466 35.88Z" fill="black"/>
<defs>
<filter id="filter0_d_16_22" x="-2.06944" y="-2" width="74.6401" height="74.5852" filterUnits="userSpaceOnUse" color-interpolation-filters="sRGB">
<feFlood flood-opacity="0" result="BackgroundImageFix"/>
<feColorMatrix in="SourceAlpha" type="matrix" values="0 0 0 0 0 0 0 0 0 0 0 0 0 0 0 0 0 0 127 0" result="hardAlpha"/>
<feMorphology radius="6" operator="erode" in="SourceAlpha" result="effect1_dropShadow_16_22"/>
<feOffset dy="4"/>
<feGaussianBlur stdDeviation="6"/>
<feComposite in2="hardAlpha" operator="out"/>
<feColorMatrix type="matrix" values="0 0 0 0 0 0 0 0 0 0 0 0 0 0 0 0 0 0 0.25 0"/>
<feBlend mode="normal" in2="BackgroundImageFix" result="effect1_dropShadow_16_22"/>
<feBlend mode="normal" in="BackgroundImageFix" in2="effect1_dropShadow_16_22" result="BackgroundImageFix"/>
<feBlend mode="normal" in="SourceGraphic" in2="BackgroundImageFix" result="shape"/>
</filter>
</defs>
</svg>
